<svg xmlns="http://www.w3.org/2000/svg" xmlns:xlink="http://www.w3.org/1999/xlink" contentStyleType="text/css" height="539px" preserveAspectRatio="none" style="width:463px;height:539px;background:#FFFFFF;" version="1.1" viewBox="0 0 463 539" width="463px" zoomAndPan="magnify"><defs/><g><!--class Usuario--><g id="elem_Usuario"><rect codeLine="1" fill="#F1F1F1" height="129.4844" id="Usuario" rx="2.5" ry="2.5" style="stroke:#181818;stroke-width:0.5;" width="119.1807" x="33.5" y="7"/><ellipse cx="63.7895" cy="23" fill="#ADD1B2" rx="11" ry="11" style="stroke:#181818;stroke-width:1;"/><path d="M66.7582,28.6406 Q66.1801,28.9375 65.5395,29.0781 Q64.8988,29.2344 64.1957,29.2344 Q61.6957,29.2344 60.3676,27.5938 Q59.0551,25.9375 59.0551,22.8125 Q59.0551,19.6875 60.3676,18.0313 Q61.6957,16.375 64.1957,16.375 Q64.8988,16.375 65.5395,16.5313 Q66.1957,16.6875 66.7582,16.9844 L66.7582,19.7031 Q66.1332,19.125 65.5395,18.8594 Q64.9457,18.5781 64.3207,18.5781 Q62.977,18.5781 62.2895,19.6563 Q61.602,20.7188 61.602,22.8125 Q61.602,24.9063 62.2895,25.9844 Q62.977,27.0469 64.3207,27.0469 Q64.9457,27.0469 65.5395,26.7813 Q66.1332,26.5 66.7582,25.9219 L66.7582,28.6406 Z " fill="#000000"/><text fill="#000000" font-family="sans-serif" font-size="14" lengthAdjust="spacing" textLength="53.2041" x="81.1871" y="27.8467">Usuario</text><line style="stroke:#181818;stroke-width:0.5;" x1="34.5" x2="151.6807" y1="39" y2="39"/><ellipse cx="44.5" cy="52.6484" fill="none" rx="3" ry="3" style="stroke:#038048;stroke-width:1;"/><text fill="#000000" font-family="sans-serif" font-size="14" lengthAdjust="spacing" textLength="56.0684" x="53.5" y="55.9951">id: Long</text><ellipse cx="44.5" cy="68.9453" fill="none" rx="3" ry="3" style="stroke:#038048;stroke-width:1;"/><text fill="#000000" font-family="sans-serif" font-size="14" lengthAdjust="spacing" textLength="90.6377" x="53.5" y="72.292">nome: String</text><ellipse cx="44.5" cy="85.2422" fill="none" rx="3" ry="3" style="stroke:#038048;stroke-width:1;"/><text fill="#000000" font-family="sans-serif" font-size="14" lengthAdjust="spacing" textLength="89.5576" x="53.5" y="88.5889">email: String</text><ellipse cx="44.5" cy="101.5391" fill="none" rx="3" ry="3" style="stroke:#038048;stroke-width:1;"/><text fill="#000000" font-family="sans-serif" font-size="14" lengthAdjust="spacing" textLength="93.1807" x="53.5" y="104.8857">senha: String</text><ellipse cx="44.5" cy="117.8359" fill="none" rx="3" ry="3" style="stroke:#038048;stroke-width:1;"/><text fill="#000000" font-family="sans-serif" font-size="14" lengthAdjust="spacing" textLength="77.7725" x="53.5" y="121.1826">role: String</text><line style="stroke:#181818;stroke-width:0.5;" x1="34.5" x2="151.6807" y1="128.4844" y2="128.4844"/></g><!--class Categoria--><g id="elem_Categoria"><rect codeLine="9" fill="#F1F1F1" height="96.8906" id="Categoria" rx="2.5" ry="2.5" style="stroke:#181818;stroke-width:0.5;" width="143.9268" x="7" y="436"/><ellipse cx="41.7068" cy="452" fill="#ADD1B2" rx="11" ry="11" style="stroke:#181818;stroke-width:1;"/><path d="M44.6756,457.6406 Q44.0975,457.9375 43.4568,458.0781 Q42.8162,458.2344 42.1131,458.2344 Q39.6131,458.2344 38.285,456.5938 Q36.9725,454.9375 36.9725,451.8125 Q36.9725,448.6875 38.285,447.0313 Q39.6131,445.375 42.1131,445.375 Q42.8162,445.375 43.4568,445.5313 Q44.1131,445.6875 44.6756,445.9844 L44.6756,448.7031 Q44.0506,448.125 43.4568,447.8594 Q42.8631,447.5781 42.2381,447.5781 Q40.8943,447.5781 40.2068,448.6563 Q39.5193,449.7188 39.5193,451.8125 Q39.5193,453.9063 40.2068,454.9844 Q40.8943,456.0469 42.2381,456.0469 Q42.8631,456.0469 43.4568,455.7813 Q44.0506,455.5 44.6756,454.9219 L44.6756,457.6406 Z " fill="#000000"/><text fill="#000000" font-family="sans-serif" font-size="14" lengthAdjust="spacing" textLength="68.1338" x="60.0861" y="456.8467">Categoria</text><line style="stroke:#181818;stroke-width:0.5;" x1="8" x2="149.9268" y1="468" y2="468"/><ellipse cx="18" cy="481.6484" fill="none" rx="3" ry="3" style="stroke:#038048;stroke-width:1;"/><text fill="#000000" font-family="sans-serif" font-size="14" lengthAdjust="spacing" textLength="56.0684" x="27" y="484.9951">id: Long</text><ellipse cx="18" cy="497.9453" fill="none" rx="3" ry="3" style="stroke:#038048;stroke-width:1;"/><text fill="#000000" font-family="sans-serif" font-size="14" lengthAdjust="spacing" textLength="90.6377" x="27" y="501.292">nome: String</text><ellipse cx="18" cy="514.2422" fill="none" rx="3" ry="3" style="stroke:#038048;stroke-width:1;"/><text fill="#000000" font-family="sans-serif" font-size="14" lengthAdjust="spacing" textLength="117.9268" x="27" y="517.5889">descricao: String</text><line style="stroke:#181818;stroke-width:0.5;" x1="8" x2="149.9268" y1="524.8906" y2="524.8906"/></g><!--class Produto--><g id="elem_Produto"><rect codeLine="15" fill="#F1F1F1" height="145.7813" id="Produto" rx="2.5" ry="2.5" style="stroke:#181818;stroke-width:0.5;" width="330.5342" x="125.5" y="213"/><ellipse cx="259.228" cy="229" fill="#ADD1B2" rx="11" ry="11" style="stroke:#181818;stroke-width:1;"/><path d="M262.1968,234.6406 Q261.6187,234.9375 260.978,235.0781 Q260.3374,235.2344 259.6343,235.2344 Q257.1343,235.2344 255.8062,233.5938 Q254.4937,231.9375 254.4937,228.8125 Q254.4937,225.6875 255.8062,224.0313 Q257.1343,222.375 259.6343,222.375 Q260.3374,222.375 260.978,222.5313 Q261.6343,222.6875 262.1968,222.9844 L262.1968,225.7031 Q261.5718,225.125 260.978,224.8594 Q260.3843,224.5781 259.7593,224.5781 Q258.4155,224.5781 257.728,225.6563 Q257.0405,226.7188 257.0405,228.8125 Q257.0405,230.9063 257.728,231.9844 Q258.4155,233.0469 259.7593,233.0469 Q260.3843,233.0469 260.978,232.7813 Q261.5718,232.5 262.1968,231.9219 L262.1968,234.6406 Z " fill="#000000"/><text fill="#000000" font-family="sans-serif" font-size="14" lengthAdjust="spacing" textLength="54.5781" x="279.728" y="233.8467">Produto</text><line style="stroke:#181818;stroke-width:0.5;" x1="126.5" x2="455.0342" y1="245" y2="245"/><ellipse cx="136.5" cy="258.6484" fill="none" rx="3" ry="3" style="stroke:#038048;stroke-width:1;"/><text fill="#000000" font-family="sans-serif" font-size="14" lengthAdjust="spacing" textLength="56.0684" x="145.5" y="261.9951">id: Long</text><ellipse cx="136.5" cy="274.9453" fill="none" rx="3" ry="3" style="stroke:#038048;stroke-width:1;"/><text fill="#000000" font-family="sans-serif" font-size="14" lengthAdjust="spacing" textLength="90.6377" x="145.5" y="278.292">nome: String</text><ellipse cx="136.5" cy="291.2422" fill="none" rx="3" ry="3" style="stroke:#038048;stroke-width:1;"/><text fill="#000000" font-family="sans-serif" font-size="14" lengthAdjust="spacing" textLength="79.8916" x="145.5" y="294.5889">slug: String</text><ellipse cx="136.5" cy="307.5391" fill="none" rx="3" ry="3" style="stroke:#038048;stroke-width:1;"/><text fill="#000000" font-family="sans-serif" font-size="14" lengthAdjust="spacing" textLength="90.0293" x="145.5" y="310.8857">sabor: String</text><ellipse cx="136.5" cy="323.8359" fill="none" rx="3" ry="3" style="stroke:#038048;stroke-width:1;"/><text fill="#000000" font-family="sans-serif" font-size="14" lengthAdjust="spacing" textLength="117.9268" x="145.5" y="327.1826">descricao: String</text><ellipse cx="136.5" cy="340.1328" fill="none" rx="3" ry="3" style="stroke:#038048;stroke-width:1;"/><text fill="#000000" font-family="sans-serif" font-size="14" lengthAdjust="spacing" textLength="304.5342" x="145.5" y="343.4795">tamanhoEmbalagem: TamanhoEmbalagem</text><line style="stroke:#181818;stroke-width:0.5;" x1="126.5" x2="455.0342" y1="350.7813" y2="350.7813"/></g><!--class TamanhoEmbalagem--><g id="elem_TamanhoEmbalagem"><rect codeLine="24" fill="#F1F1F1" height="96.8906" id="TamanhoEmbalagem" rx="2.5" ry="2.5" style="stroke:#181818;stroke-width:0.5;" width="181.2148" x="200.5" y="436"/><ellipse cx="215.5" cy="452" fill="#EB937F" rx="11" ry="11" style="stroke:#181818;stroke-width:1;"/><path d="M219.6094,458 L211.8906,458 L211.8906,445.6094 L219.6094,445.6094 L219.6094,447.7656 L214.3438,447.7656 L214.3438,450.4375 L219.1094,450.4375 L219.1094,452.5938 L214.3438,452.5938 L214.3438,455.8438 L219.6094,455.8438 L219.6094,458 Z " fill="#000000"/><text fill="#000000" font-family="sans-serif" font-size="14" lengthAdjust="spacing" textLength="149.2148" x="229.5" y="456.8467">TamanhoEmbalagem</text><line style="stroke:#181818;stroke-width:0.5;" x1="201.5" x2="380.7148" y1="468" y2="468"/><text fill="#000000" font-family="sans-serif" font-size="14" lengthAdjust="spacing" textLength="35.9365" x="206.5" y="484.9951">_1KG</text><text fill="#000000" font-family="sans-serif" font-size="14" lengthAdjust="spacing" textLength="44.5703" x="206.5" y="501.292">_500G</text><text fill="#000000" font-family="sans-serif" font-size="14" lengthAdjust="spacing" textLength="44.5703" x="206.5" y="517.5889">_250G</text><line style="stroke:#181818;stroke-width:0.5;" x1="201.5" x2="380.7148" y1="524.8906" y2="524.8906"/></g><!--link Produto to TamanhoEmbalagem--><g id="link_Produto_TamanhoEmbalagem"><path codeLine="30" d="M291,359.05 C291,384.68 291,406.88 291,429.94 " fill="none" id="Produto-to-TamanhoEmbalagem" style="stroke:#181818;stroke-width:1;"/><polygon fill="#181818" points="291,435.94,295,426.94,291,430.94,287,426.94,291,435.94" style="stroke:#181818;stroke-width:1;"/></g><!--link Produto to Categoria--><g id="link_Produto_Categoria"><path codeLine="31" d="M213.26,359.05 C185.61,384.68 159.5905,408.8014 134.7105,431.8614 " fill="none" id="Produto-to-Categoria" style="stroke:#181818;stroke-width:1;"/><polygon fill="#181818" points="130.31,435.94,139.6299,432.7557,133.9771,432.5411,134.1917,426.8884,130.31,435.94" style="stroke:#181818;stroke-width:1;"/><text fill="#000000" font-family="sans-serif" font-size="13" lengthAdjust="spacing" textLength="70.1733" x="180" y="402.0669">pertence a</text></g><!--link Usuario to Produto--><g id="link_Usuario_Produto"><path codeLine="32" d="M152.41,136.26 C174.85,160.34 196.4504,183.5196 219.5604,208.3296 " fill="none" id="Usuario-to-Produto" style="stroke:#181818;stroke-width:1;"/><polygon fill="#181818" points="223.65,212.72,220.4426,203.408,220.242,209.0613,214.5887,208.8608,223.65,212.72" style="stroke:#181818;stroke-width:1;"/><text fill="#000000" font-family="sans-serif" font-size="13" lengthAdjust="spacing" textLength="56.5576" x="193" y="179.0669">gerencia</text><text fill="#000000" font-family="sans-serif" font-size="13" lengthAdjust="spacing" textLength="8.271" x="150.822" y="156.6616">1</text><text fill="#000000" font-family="sans-serif" font-size="13" lengthAdjust="spacing" textLength="6.5" x="210.7725" y="201.8524">*</text></g><!--link Usuario to Categoria--><g id="link_Usuario_Categoria"><path codeLine="33" d="M87.11,136.09 C85.12,160.16 83.12,187.82 82,213 C78.52,290.88 78.2601,375.5001 78.5301,429.5901 " fill="none" id="Usuario-to-Categoria" style="stroke:#181818;stroke-width:1;"/><polygon fill="#181818" points="78.56,435.59,82.515,426.5701,78.535,430.5901,74.5151,426.6101,78.56,435.59" style="stroke:#181818;stroke-width:1;"/><text fill="#000000" font-family="sans-serif" font-size="13" lengthAdjust="spacing" textLength="24.0703" x="83" y="290.5669">cria</text><text fill="#000000" font-family="sans-serif" font-size="13" lengthAdjust="spacing" textLength="8.271" x="77.9717" y="156.472">1</text><text fill="#000000" font-family="sans-serif" font-size="13" lengthAdjust="spacing" textLength="6.5" x="72.1363" y="425.0931">*</text></g><!--SRC=[ZL6xgW8n4EttAuOj5K45cnGs8XRNGb1h6RD332IPooHRYVzkN5rVAsYgapDdphoqmnXX6siKot0i8B- -hHGiEPZhBx0d1UiajcN8etMlLAHmm5TAs3toJaMXcr8pJ6HOBFvQhAAenMhahjTAkAhJpsr7Lvit1lSityerT4AFuS1plqU7Xho2pHjpQOj2xJk1MtkxqT_Y2YR3uGsD9ndbl7QGmM3QzNqEFhQdu9yaKT04MBJtAqTb8ojxvNqv2Wn9rjdFicV7F3YU0G00]--></g></svg>